<svg width="26" height="26" viewBox="0 0 26 26" fill="none" xmlns="http://www.w3.org/2000/svg">
<path opacity="0.2" d="M13 26C20.1797 26 26 20.1797 26 13C26 5.8203 20.1797 0 13 0C5.8203 0 0 5.8203 0 13C0 20.1797 5.8203 26 13 26Z" fill="#F7931A"/>
<path fill-rule="evenodd" clip-rule="evenodd" d="M18.5996 10.8077C18.2244 10.4988 17.7358 10.3441 17.134 10.3439C17.7597 9.77993 17.9142 9.04894 17.5978 8.15078C17.4855 7.82447 17.3251 7.5574 17.1163 7.3492C16.9073 7.14097 16.6587 6.99368 16.3696 6.90744C16.0806 6.82096 15.7785 6.77561 15.4638 6.77089C15.1489 6.76619 14.7957 6.79384 14.4044 6.85387L13.9281 4.94357L12.8097 5.22242L13.2728 7.07964C13.0791 7.12793 12.7851 7.20661 12.3906 7.31571L11.9238 5.44332L10.8052 5.7222L11.2815 7.6325C11.1229 7.67742 10.8888 7.73854 10.5789 7.8158L9.03733 8.19204L9.3473 9.43527L10.1534 9.23428C10.5214 9.14253 10.7797 9.26068 10.9283 9.58858L11.4708 11.7642C11.5193 11.7522 11.5586 11.7451 11.5889 11.7429L11.4727 11.7719L12.2325 14.8191C12.258 15.0865 12.1498 15.2504 11.9076 15.3108L11.1016 15.5118L11.2223 16.9552L12.6749 16.593C12.7669 16.5701 12.9003 16.5382 13.0752 16.497C13.2501 16.4561 13.3811 16.4248 13.4683 16.403L13.9503 18.336L15.069 18.0571L14.5927 16.1468C14.7973 16.1013 15.0932 16.0302 15.4806 15.9336L15.955 17.8362L17.0734 17.5574L16.5914 15.6243C16.9835 15.5052 17.3263 15.3796 17.6197 15.2472C17.9133 15.1148 18.1858 14.9544 18.437 14.7655C18.6881 14.5769 18.886 14.3704 19.0307 14.1464C19.1756 13.9226 19.2755 13.6587 19.3311 13.3549C19.3863 13.0513 19.3864 12.7158 19.3307 12.3485C19.2188 11.6304 18.975 11.1168 18.5996 10.8077ZM12.7525 8.67459L12.7526 8.67457L13.3328 11.0018C13.3571 10.9957 13.4408 10.9762 13.5844 10.9431C13.7279 10.91 13.8404 10.8819 13.9221 10.8589C14.0038 10.8359 14.1236 10.8005 14.2815 10.7531C14.4395 10.7058 14.5691 10.6586 14.6706 10.6118C14.772 10.5651 14.8898 10.5062 15.0237 10.4352C15.1577 10.3643 15.2635 10.2882 15.341 10.2072C15.4185 10.1262 15.4912 10.0356 15.5588 9.93549C15.6263 9.83546 15.6675 9.72181 15.682 9.59477C15.6966 9.46762 15.6862 9.33329 15.6509 9.19177C15.6093 9.02503 15.5422 8.88477 15.4495 8.77102C15.3569 8.65721 15.2566 8.56944 15.1486 8.50781C15.0408 8.44615 14.907 8.40432 14.7471 8.3825C14.5875 8.36056 14.4438 8.35208 14.3165 8.35702C14.1892 8.36197 14.0353 8.37883 13.8548 8.40773C13.6742 8.43665 13.5322 8.46534 13.4287 8.4938C13.3253 8.5223 13.1952 8.55738 13.0384 8.59923C12.8818 8.64099 12.7866 8.6661 12.7526 8.67457L12.7526 8.67454L12.7525 8.67456L12.7525 8.67459ZM16.9915 13.4231C17.0426 13.3191 17.0766 13.2032 17.0937 13.0754C17.1108 12.9476 17.1017 12.8132 17.0664 12.6715C17.021 12.4895 16.9444 12.3368 16.8364 12.2135C16.7285 12.0901 16.61 11.9963 16.4808 11.9318C16.3515 11.8674 16.193 11.825 16.0054 11.8048C15.8177 11.7844 15.6476 11.7772 15.4948 11.7831C15.3418 11.789 15.157 11.811 14.9404 11.849C14.7234 11.8869 14.5545 11.9211 14.4334 11.9513C14.3124 11.9815 14.1569 12.0227 13.9668 12.0755C13.7768 12.1284 13.6624 12.1595 13.6237 12.1692L14.2626 14.7315C14.3014 14.7218 14.3912 14.7008 14.5323 14.6681C14.6733 14.6356 14.7899 14.608 14.8819 14.5851C14.9738 14.5621 15.1013 14.5263 15.264 14.4778C15.4268 14.4291 15.5658 14.3837 15.6812 14.3415C15.7968 14.2992 15.9294 14.2434 16.0794 14.1738C16.229 14.1042 16.3547 14.0355 16.456 13.9671C16.5571 13.8989 16.659 13.8173 16.7612 13.7219C16.8634 13.6268 16.9402 13.527 16.9915 13.4231Z" fill="#F7931A"/>
<path fill-rule="evenodd" clip-rule="evenodd" d="M13 24C19.0751 24 24 19.0751 24 13C24 6.92487 19.0751 2 13 2C6.92487 2 2 6.92487 2 13C2 19.0751 6.92487 24 13 24Z" stroke="#F7931A" stroke-width="1.38125"/>
</svg>
