<svg width="48" height="24" viewBox="0 0 48 24" fill="none" xmlns="http://www.w3.org/2000/svg">
<rect width="48" height="24" rx="2" fill="#FBFAF8"/>
<path fill-rule="evenodd" clip-rule="evenodd" d="M24 24C24 24 32.8773 22.3605 38.6591 19.9184C44.4168 17.6964 48 15 48 15V24H24Z" fill="#F16822"/>
<path fill-rule="evenodd" clip-rule="evenodd" d="M38.5518 9.13745H40.5428C41.1781 9.13745 42.4428 9.46138 42.4428 10.8176C42.4428 12.1752 41.1354 12.4561 41.1354 12.4561L42.9999 14.8415H41.5175L39.8696 12.5649H39.7434V14.8415H38.5518V9.13745ZM39.743 10.0884V11.7532H40.399C40.904 11.7532 41.2227 11.3278 41.2227 10.956V10.8846C41.2227 10.5135 40.904 10.0884 40.399 10.0884H39.743Z" fill="#2A2D2E"/>
<path fill-rule="evenodd" clip-rule="evenodd" d="M28.0317 9.13745H29.3451L31.0264 12.8742L32.611 9.13745H33.9247L31.3564 14.9863H30.6001L28.0317 9.13745Z" fill="#2A2D2E"/>
<path fill-rule="evenodd" clip-rule="evenodd" d="M10.4805 14.8415H11.7006V9.13745H10.4805V14.8415Z" fill="#2A2D2E"/>
<path fill-rule="evenodd" clip-rule="evenodd" d="M5 9.13721H6.99741C8.19654 9.13721 9.9557 10.1548 9.9557 11.9633V11.9843V12.0057C9.9557 13.8146 8.19654 14.8315 6.99741 14.8315H5V9.13721ZM6.15015 13.8824C6.15015 13.8824 8.71397 14.1521 8.71397 12.033V11.9997C8.71397 9.88021 6.15015 10.1503 6.15015 10.1503V13.8824Z" fill="#2A2D2E"/>
<path fill-rule="evenodd" clip-rule="evenodd" d="M37.6662 11.3855V12.3915H35.5913V13.8352H37.7621V14.8413H34.3794V9.13721H37.7621V10.1433H35.5913V11.3855H37.6662Z" fill="#2A2D2E"/>
<path fill-rule="evenodd" clip-rule="evenodd" d="M28.2461 12.0175C28.2461 13.6508 26.8275 14.9745 25.0788 14.9745C23.3294 14.9745 21.9111 13.6508 21.9111 12.0175C21.9111 10.3839 23.3294 9.05981 25.0788 9.05981C26.8275 9.05981 28.2461 10.3839 28.2461 12.0175Z" fill="#F16822"/>
<path fill-rule="evenodd" clip-rule="evenodd" d="M15.4412 10.4524C15.4412 10.4524 15.0392 10.0204 14.4994 10.0204C13.9607 10.0204 13.6494 10.3555 13.6494 10.5997C13.6494 10.8432 13.6393 10.981 14.4091 11.2808C15.1797 11.5816 16.3121 11.7975 16.3121 13.068C16.3121 14.3375 15.2467 14.9818 14.2889 14.9818C12.7777 14.9818 12.0981 13.8999 12.0981 13.8999L12.8586 13.1894C12.8586 13.1894 13.3407 13.9467 14.1817 13.9467C15.0223 13.9467 15.0692 13.3489 15.0692 13.1523C15.0692 12.8613 14.8882 12.5734 14.369 12.3957C13.8498 12.2169 12.43 12.0378 12.43 10.7592C12.43 9.61114 13.349 9.04199 14.3791 9.04199C15.2999 9.04199 16.1008 9.71503 16.1008 9.71503L15.4412 10.4524Z" fill="#2A2D2E"/>
<path fill-rule="evenodd" clip-rule="evenodd" d="M21.3818 10.6896C21.0042 10.3251 20.4842 10.0603 19.8991 10.0603C18.752 10.0603 17.8222 10.9292 17.8222 11.9997C17.8222 13.0711 18.752 13.939 19.8991 13.939C20.4786 13.939 21.006 13.677 21.3821 13.3191L21.3818 14.6617C20.9375 14.879 20.4344 15 19.8991 15C18.1245 15 16.686 13.6571 16.686 11.9997C16.686 10.3429 18.1245 9 19.8991 9C20.4359 9 20.9371 9.12278 21.3818 9.34072V10.6896Z" fill="#2A2D2E"/>
</svg>
