<svg width="231" height="230" viewBox="0 0 231 230" fill="none" xmlns="http://www.w3.org/2000/svg">
<g opacity="0.5">
<mask id="mask0_1002_1599" style="mask-type:alpha" maskUnits="userSpaceOnUse" x="17" y="17" width="196" height="196">
<circle cx="114.986" cy="114.944" r="70.9434" stroke="white" stroke-width="0.678783"/>
<circle cx="114.986" cy="114.944" r="97.5899" stroke="white" stroke-width="0.678783"/>
<path d="M145.254 33.2431L138.897 31.4933L138.603 24.9099L134.971 30.4128L128.617 28.6515L132.729 33.8069L129.097 39.3098L135.268 36.9847L139.38 42.1401L139.086 35.5567L145.254 33.2431Z" fill="white"/>
<path d="M139.149 37.0441L139.085 35.5566L135.278 36.9877L139.149 37.0441Z" fill="#595959"/>
<path d="M41.88 162.894L45.9328 168.06L42.2684 173.504L48.4354 171.25L52.4787 176.423L52.2405 169.861L58.4074 167.607L52.0904 165.814L51.8521 159.251L48.1877 164.695L41.88 162.894Z" fill="white"/>
<path d="M49.0181 163.466L48.1882 164.695L52.0835 165.804L49.0181 163.466Z" fill="#595959"/>
<path d="M201.798 120.455L201.765 113.882L208.004 111.828L201.745 109.824L201.724 103.251L197.883 108.586L191.624 106.582L195.517 111.878L191.677 117.214L197.916 115.159L201.798 120.455Z" fill="white"/>
<path d="M196.507 115.621L197.917 115.159L195.518 111.89L196.507 115.621Z" fill="#595959"/>
<path d="M137.106 199.404L143.262 197.048L147.396 202.176L147.062 195.594L153.222 193.25L146.858 191.533L146.525 184.952L142.932 190.478L136.569 188.761L140.703 193.889L137.106 199.404Z" fill="white"/>
<path d="M139.771 192.729L140.704 193.889L142.922 190.482L139.771 192.729Z" fill="#595959"/>
<path d="M47.0046 59.5739L43.3068 65.0847L36.9288 63.2652L41.0235 68.4875L37.3157 73.9916L43.5484 71.7103L47.6432 76.9327L47.3915 70.3003L53.6243 68.0191L47.2462 66.1996L47.0046 59.5739Z" fill="white"/>
<path d="M48.6863 66.6129L47.2459 66.1996L47.3979 70.2903L48.6863 66.6129Z" fill="#595959"/>
</mask>
<g mask="url(#mask0_1002_1599)">
<rect x="12.2129" y="12.2185" width="204.993" height="204.314" fill="url(#paint0_radial_1002_1599)"/>
<rect x="12.2129" y="12.2185" width="204.993" height="204.314" fill="white"/>
</g>
</g>
<path d="M82.1148 113.966L82.1148 108.228L68.2152 108.228L68.2152 102.248L77.9934 85.6815L87.2868 85.6815L87.2868 103.622L91.9739 103.622L91.9739 108.228L87.2868 108.228L87.2868 113.966L82.1148 113.966ZM73.1447 103.622L82.1148 103.622L82.1148 88.9948L81.3875 88.9948L73.1447 102.975L73.1447 103.622ZM94.741 114.295C94.1138 114.295 93.5806 114.091 93.1415 113.684C92.7181 113.26 92.5064 112.719 92.5064 112.06C92.5064 111.402 92.7181 110.869 93.1415 110.461C93.5806 110.038 94.1138 109.826 94.741 109.826C95.384 109.826 95.9171 110.038 96.3405 110.461C96.7639 110.869 96.9756 111.402 96.9756 112.06C96.9756 112.719 96.7639 113.26 96.3405 113.684C95.9171 114.091 95.384 114.295 94.741 114.295ZM110.379 114.531C108.224 114.531 106.351 114.127 104.762 113.319C103.173 112.511 101.947 111.393 101.085 109.966C100.223 108.538 99.7922 106.895 99.7922 105.036L99.7922 95.379C99.7922 93.0893 100.25 91.1902 101.166 89.6817C102.109 88.1463 103.388 87.0015 105.005 86.2472C106.648 85.493 108.52 85.1159 110.621 85.1159C112.722 85.1159 114.54 85.4661 116.076 86.1664C117.638 86.8668 118.837 87.8769 119.672 89.1969C120.534 90.5168 120.965 92.0926 120.965 93.9244L115.712 93.9244C115.712 92.793 115.322 91.8098 114.54 90.9747C113.759 90.1397 112.453 89.7222 110.621 89.7222C108.816 89.7222 107.415 90.1936 106.419 91.1364C105.449 92.0792 104.964 93.3856 104.964 95.0558L104.964 97.965L105.691 97.965C106.149 97.4262 106.85 96.9144 107.793 96.4296C108.735 95.9447 110.109 95.7023 111.914 95.7023C113.557 95.7023 115.066 96.0524 116.439 96.7528C117.84 97.4532 118.972 98.4768 119.834 99.8237C120.696 101.144 121.127 102.746 121.127 104.632L121.127 105.117C121.127 106.976 120.682 108.619 119.793 110.046C118.904 111.447 117.652 112.552 116.035 113.36C114.419 114.141 112.534 114.531 110.379 114.531ZM110.459 109.925C112.156 109.925 113.49 109.481 114.46 108.592C115.456 107.703 115.955 106.518 115.955 105.036L115.955 104.713C115.955 103.716 115.726 102.854 115.268 102.127C114.837 101.4 114.204 100.834 113.369 100.43C112.561 100.026 111.591 99.8237 110.459 99.8237C109.355 99.8237 108.385 100.026 107.55 100.43C106.715 100.834 106.069 101.4 105.611 102.127C105.18 102.854 104.964 103.716 104.964 104.713L104.964 105.036C104.964 106.518 105.449 107.703 106.419 108.592C107.415 109.481 108.762 109.925 110.459 109.925Z" fill="white"/>
<path d="M151.199 114.531C148.991 114.531 147.078 114.141 145.462 113.36C143.872 112.579 142.647 111.474 141.785 110.046C140.923 108.619 140.492 106.962 140.492 105.076L140.492 104.672L145.745 104.672L145.745 105.036C145.745 106.383 146.189 107.541 147.078 108.511C147.994 109.454 149.341 109.925 151.119 109.925C152.896 109.925 154.257 109.454 155.2 108.511C156.169 107.541 156.654 106.289 156.654 104.753L156.654 104.349C156.654 102.841 156.169 101.642 155.2 100.753C154.257 99.8641 153.072 99.4196 151.644 99.4196C150.863 99.4196 150.216 99.5274 149.704 99.7429C149.193 99.9584 148.775 100.228 148.452 100.551C148.129 100.874 147.859 101.197 147.644 101.521L141.381 101.521L141.381 85.6815L160.695 85.6815L160.695 90.3687L146.553 90.3687L146.553 97.2781L147.28 97.2781C147.549 96.9279 147.913 96.5912 148.371 96.2679C148.829 95.9447 149.422 95.6753 150.149 95.4598C150.876 95.2443 151.738 95.1366 152.735 95.1366C154.405 95.1366 155.927 95.4868 157.301 96.1871C158.675 96.8875 159.766 97.9246 160.574 99.2984C161.409 100.645 161.826 102.315 161.826 104.309L161.826 104.794C161.826 106.787 161.395 108.511 160.533 109.966C159.698 111.42 158.486 112.552 156.897 113.36C155.307 114.141 153.408 114.531 151.199 114.531Z" fill="white"/>
<path d="M127.115 109.83L133.284 90.9457H134.942L128.773 109.83H127.115Z" fill="white"/>
<path d="M94.505 132.161C94.505 133.337 94.1775 134.334 93.5225 135.153C92.8823 135.957 92.0263 136.493 90.9544 136.761L94.2817 143.014H91.4233L88.3193 136.917H85.4832V143.014H82.8928V127.382H89.5922C91.0511 127.382 92.2347 127.821 93.1428 128.699C94.051 129.578 94.505 130.732 94.505 132.161ZM85.4832 129.749V134.55H89.3242C90.1281 134.55 90.7608 134.342 91.2223 133.925C91.6839 133.493 91.9146 132.905 91.9146 132.161C91.9146 131.401 91.6839 130.813 91.2223 130.397C90.7757 129.965 90.143 129.749 89.3242 129.749H85.4832ZM96.2516 134.706C97.517 132.697 99.3035 131.692 101.611 131.692C103.1 131.692 104.291 132.086 105.184 132.875C106.077 133.664 106.524 134.714 106.524 136.024V143.014H104.112V141.361H103.799C103.189 142.671 101.968 143.326 100.137 143.326C98.9015 143.326 97.9041 143.021 97.1448 142.411C96.4004 141.785 96.0283 140.959 96.0283 139.932C96.0283 139.009 96.3707 138.265 97.0555 137.699C97.7403 137.133 98.708 136.791 99.9585 136.672L104.09 136.247V135.957C104.09 135.302 103.866 134.788 103.42 134.416C102.973 134.029 102.341 133.836 101.522 133.836C100.048 133.836 98.976 134.513 98.306 135.868L96.2516 134.706ZM98.574 139.82C98.574 140.267 98.7527 140.624 99.1099 140.892C99.4821 141.16 99.9958 141.294 100.651 141.294C101.752 141.294 102.601 141.011 103.197 140.446C103.792 139.865 104.09 139.128 104.09 138.235V138.056L100.494 138.436C99.2142 138.555 98.574 139.016 98.574 139.82ZM107.79 132.004H110.715V128.387H113.172V132.004H116.298V134.126H113.172V140.245C113.172 140.676 113.373 140.892 113.775 140.892H115.673V143.014H112.725C112.144 143.014 111.661 142.828 111.273 142.455C110.901 142.083 110.715 141.599 110.715 141.004V134.126H107.79V132.004ZM117.704 128.722C117.704 128.201 117.883 127.776 118.24 127.449C118.597 127.106 119.037 126.935 119.558 126.935C120.079 126.935 120.51 127.106 120.853 127.449C121.21 127.776 121.389 128.201 121.389 128.722C121.389 129.228 121.21 129.652 120.853 129.995C120.51 130.337 120.079 130.508 119.558 130.508C119.037 130.508 118.597 130.337 118.24 129.995C117.883 129.652 117.704 129.228 117.704 128.722ZM120.786 132.004V143.014H118.329L118.329 132.004H120.786ZM123.607 132.004H126.019V133.813H126.331C126.971 132.488 128.17 131.826 129.927 131.826C131.162 131.826 132.182 132.235 132.986 133.054C133.805 133.858 134.214 134.974 134.214 136.404V143.014H131.758V136.627C131.758 135.763 131.527 135.108 131.065 134.662C130.604 134.2 129.949 133.97 129.1 133.97C128.133 133.97 127.381 134.26 126.845 134.84C126.324 135.421 126.063 136.24 126.063 137.297V143.014H123.607L123.607 132.004ZM145.262 132.004H147.674V142.656C147.674 144.175 147.168 145.411 146.155 146.363C145.158 147.316 143.818 147.793 142.136 147.793C139.62 147.793 137.692 146.765 136.352 144.711L138.473 143.438C139.233 144.912 140.401 145.649 141.979 145.649C142.962 145.649 143.743 145.388 144.324 144.867C144.92 144.346 145.217 143.572 145.217 142.545V141.049H144.949C144.175 142.359 142.962 143.014 141.309 143.014C139.88 143.014 138.667 142.478 137.669 141.406C136.687 140.334 136.196 138.979 136.196 137.342C136.196 135.719 136.687 134.371 137.669 133.3C138.667 132.228 139.88 131.692 141.309 131.692C142.947 131.692 144.16 132.339 144.949 133.635H145.262V132.004ZM139.568 139.91C140.178 140.52 140.974 140.825 141.957 140.825C142.94 140.825 143.729 140.52 144.324 139.91C144.92 139.284 145.217 138.428 145.217 137.342C145.217 136.27 144.92 135.428 144.324 134.818C143.729 134.193 142.94 133.88 141.957 133.88C140.974 133.88 140.178 134.185 139.568 134.796C138.957 135.406 138.652 136.255 138.652 137.342C138.652 138.443 138.957 139.299 139.568 139.91Z" fill="white"/>
<g opacity="0.65">
<path d="M203.367 131.852L201.426 139.925L199.684 139.506L200.424 136.428L192.003 134.403L192.464 132.487L200.885 134.511L201.625 131.433L203.367 131.852Z" fill="white"/>
<path d="M197.383 142.382L196.364 142.039L196.298 142.237C196.913 142.717 197.066 143.42 196.755 144.344L196.526 145.024L194.913 144.481L195.265 143.434C195.424 142.962 195.423 142.542 195.264 142.173C195.114 141.807 194.798 141.544 194.317 141.382L190.353 140.049L190.953 138.265L197.974 140.627L197.383 142.382Z" fill="white"/>
<path d="M186.288 150.143L187.037 148.449L188.129 148.932L188.214 148.741C187.566 148.041 187.481 147.149 187.96 146.065C188.298 145.3 188.833 144.78 189.564 144.505C190.3 144.243 191.101 144.303 191.966 144.685L196.009 146.472L195.248 148.193L191.369 146.478C190.896 146.269 190.469 146.238 190.088 146.385C189.707 146.533 189.408 146.852 189.191 147.344C188.949 147.89 188.928 148.382 189.127 148.818C189.326 149.254 189.726 149.605 190.327 149.871L193.823 151.417L193.062 153.137L186.288 150.143Z" fill="white"/>
<path d="M188.574 153.853C189.131 153.621 189.703 153.672 190.291 154.008C190.879 154.343 191.221 154.859 191.317 155.556C191.412 156.252 191.245 156.976 190.816 157.729C190.17 158.861 189.078 159.62 187.541 160.004L187.28 158.29C188.371 158.087 189.118 157.631 189.523 156.922C189.695 156.619 189.768 156.351 189.741 156.118C189.722 155.89 189.613 155.719 189.414 155.605C189.198 155.482 188.988 155.488 188.785 155.624C188.59 155.765 188.359 156.018 188.094 156.382L187.942 156.588C187.234 157.548 186.608 158.153 186.064 158.404C185.523 158.669 184.959 158.633 184.371 158.298C183.739 157.938 183.372 157.367 183.267 156.585C183.167 155.817 183.358 155.01 183.842 154.162C184.666 152.718 185.91 151.944 187.574 151.839L187.651 153.602C187.136 153.561 186.656 153.67 186.209 153.931C185.762 154.192 185.415 154.538 185.169 154.971C184.971 155.317 184.87 155.655 184.865 155.984C184.869 156.319 184.992 156.555 185.235 156.693C185.347 156.758 185.462 156.777 185.579 156.752C185.705 156.733 185.832 156.661 185.959 156.539C186.086 156.417 186.195 156.296 186.286 156.176C186.386 156.061 186.511 155.903 186.66 155.701L186.812 155.496C187.434 154.647 188.021 154.1 188.574 153.853Z" fill="white"/>
<path d="M188.158 161.856L187.082 163.4L188.969 164.715L187.894 166.259L186.007 164.944L184.846 166.611L183.523 165.689L184.683 164.023L181.62 161.889C181.375 161.719 181.173 161.748 181.013 161.976L180.331 162.957L179.007 162.035L180.168 160.368C180.407 160.025 180.716 159.816 181.096 159.741C181.476 159.666 181.837 159.748 182.181 159.987L185.759 162.479L186.834 160.935L188.158 161.856Z" fill="white"/>
<path d="M175.769 161.485L183.687 168.217L182.487 169.628L181.691 168.951L181.555 169.11C181.857 170.046 181.666 170.916 180.983 171.72C180.377 172.433 179.573 172.802 178.572 172.827C177.571 172.851 176.646 172.502 175.797 171.78C174.947 171.058 174.454 170.201 174.317 169.209C174.18 168.217 174.415 167.364 175.021 166.652C175.705 165.848 176.533 165.519 177.505 165.667L177.621 165.53L174.55 162.918L175.769 161.485ZM176.624 167.348C176.244 167.796 176.083 168.292 176.141 168.839C176.193 169.392 176.484 169.895 177.015 170.346C177.546 170.798 178.089 171.005 178.644 170.967C179.193 170.936 179.657 170.698 180.037 170.25C180.424 169.795 180.585 169.291 180.519 168.739C180.461 168.192 180.17 167.697 179.647 167.252C179.123 166.807 178.584 166.596 178.027 166.62C177.479 166.65 177.011 166.893 176.624 167.348Z" fill="white"/>
<path d="M178.133 176.34C178.478 176.333 178.784 176.463 179.051 176.731C179.319 176.998 179.449 177.304 179.442 177.649C179.428 178.001 179.287 178.311 179.02 178.579C178.752 178.846 178.446 178.983 178.101 178.99C177.749 179.004 177.439 178.878 177.172 178.61C176.904 178.343 176.778 178.033 176.792 177.681C176.799 177.336 176.936 177.03 177.204 176.762C177.471 176.495 177.781 176.354 178.133 176.34ZM175.926 176.815L170.689 171.577L172.019 170.247L177.256 175.485L175.926 176.815Z" fill="white"/>
<path d="M174.943 181.913L167.911 174.179L169.303 172.913L176.335 180.647L174.943 181.913Z" fill="white"/>
<path d="M166.615 176.524C167.649 176.653 168.517 177.169 169.22 178.073C169.923 178.976 170.208 179.941 170.073 180.967C169.936 182.007 169.431 182.866 168.559 183.545C167.687 184.224 166.734 184.499 165.7 184.37C164.665 184.255 163.795 183.746 163.092 182.842C162.389 181.939 162.106 180.967 162.243 179.927C162.378 178.901 162.881 178.049 163.753 177.37C164.625 176.691 165.579 176.409 166.615 176.524ZM168.29 180.84C168.33 180.292 168.145 179.755 167.735 179.228C167.326 178.702 166.847 178.387 166.3 178.283C165.758 178.187 165.252 178.323 164.78 178.69C164.309 179.057 164.053 179.514 164.013 180.063C163.98 180.619 164.167 181.16 164.577 181.686C164.987 182.213 165.462 182.524 166.004 182.62C166.551 182.724 167.061 182.592 167.532 182.225C168.003 181.858 168.256 181.397 168.29 180.84Z" fill="white"/>
<path d="M164.614 186.268L163.031 187.284L164.273 189.22L162.689 190.236L161.447 188.301L159.738 189.397L158.867 188.04L160.576 186.943L158.56 183.801C158.399 183.55 158.201 183.499 157.966 183.65L156.961 184.295L156.09 182.938L157.799 181.841C158.151 181.615 158.517 181.54 158.896 181.616C159.276 181.691 159.579 181.905 159.805 182.257L162.16 185.927L163.743 184.911L164.614 186.268Z" fill="white"/>
<path d="M127.639 204.046L119.373 204.826L119.205 203.042L122.357 202.744L121.544 194.121L123.506 193.936L124.319 202.559L127.471 202.262L127.639 204.046Z" fill="white"/>
<path d="M115.817 201.784L115.81 200.709L115.601 200.71C115.347 201.448 114.732 201.821 113.756 201.827L113.04 201.832L113.028 200.129L114.134 200.122C114.631 200.119 115.029 199.982 115.326 199.711C115.623 199.45 115.769 199.066 115.766 198.558L115.739 194.377L117.62 194.365L117.669 201.772L115.817 201.784Z" fill="white"/>
<path d="M104.83 193.791L106.675 193.949L106.573 195.14L106.781 195.157C107.233 194.317 108.049 193.947 109.229 194.048C110.062 194.12 110.728 194.457 111.226 195.059C111.713 195.67 111.916 196.447 111.835 197.389L111.458 201.794L109.583 201.633L109.945 197.407C109.99 196.891 109.88 196.477 109.617 196.165C109.354 195.853 108.955 195.674 108.419 195.628C107.824 195.577 107.353 195.716 107.005 196.046C106.656 196.376 106.454 196.868 106.398 197.523L106.072 201.332L104.197 201.171L104.83 193.791Z" fill="white"/>
<path d="M101.601 197.071C101.999 197.525 102.133 198.084 102.002 198.748C101.872 199.412 101.492 199.901 100.863 200.214C100.234 200.527 99.4939 200.6 98.6439 200.433C97.3641 200.182 96.297 199.39 95.4425 198.056L96.9828 197.262C97.5235 198.23 98.1944 198.793 98.9955 198.95C99.3374 199.017 99.6146 199 99.827 198.9C100.038 198.809 100.165 198.652 100.209 198.427C100.257 198.183 100.184 197.986 99.9898 197.836C99.7941 197.696 99.4811 197.559 99.0511 197.424L98.8077 197.346C97.6719 196.981 96.8982 196.581 96.4865 196.145C96.0631 195.717 95.9165 195.171 96.0467 194.507C96.1864 193.794 96.61 193.263 97.3174 192.915C98.0131 192.574 98.8397 192.498 99.7971 192.685C101.429 193.005 102.56 193.937 103.191 195.481L101.544 196.117C101.419 195.615 101.162 195.195 100.772 194.855C100.382 194.514 99.9429 194.296 99.4545 194.201C99.0637 194.124 98.7113 194.136 98.3973 194.237C98.0815 194.348 97.8967 194.54 97.8431 194.813C97.8182 194.94 97.8363 195.055 97.8972 195.159C97.9562 195.272 98.064 195.369 98.2205 195.45C98.377 195.532 98.5266 195.596 98.6693 195.645C98.8101 195.703 98.9998 195.77 99.2383 195.847L99.4816 195.926C100.484 196.244 101.191 196.626 101.601 197.071Z" fill="white"/>
<path d="M93.9815 199.249L92.1723 198.732L91.5405 200.943L89.7313 200.426L90.3632 198.215L88.4104 197.657L88.8536 196.106L90.8063 196.664L91.8321 193.075C91.9142 192.787 91.8212 192.606 91.5532 192.529L90.4045 192.201L90.8477 190.65L92.8004 191.208C93.2024 191.323 93.5005 191.548 93.6947 191.883C93.8889 192.218 93.9285 192.587 93.8136 192.989L92.6155 197.181L94.4247 197.698L93.9815 199.249Z" fill="white"/>
<path d="M90.3399 187.396L86.5401 197.07L84.8166 196.393L85.1987 195.42L85.0041 195.344C84.2166 195.933 83.3317 196.035 82.3494 195.649C81.4784 195.307 80.8689 194.666 80.5211 193.727C80.1732 192.789 80.2031 191.8 80.6108 190.762C81.0184 189.725 81.6691 188.98 82.5629 188.529C83.4568 188.078 84.3392 188.023 85.2102 188.366C86.1925 188.751 86.7716 189.428 86.9477 190.396L87.1145 190.461L88.5886 186.708L90.3399 187.396ZM85.0713 190.108C84.5246 189.893 84.0024 189.902 83.5047 190.134C82.9977 190.363 82.6169 190.802 82.3621 191.45C82.1073 192.099 82.0878 192.68 82.3036 193.192C82.5101 193.701 82.8868 194.063 83.4335 194.278C83.9895 194.496 84.5181 194.484 85.0195 194.243C85.5172 194.011 85.8916 193.575 86.1427 192.935C86.3939 192.296 86.418 191.717 86.2151 191.199C86.0086 190.69 85.6273 190.326 85.0713 190.108Z" fill="white"/>
<path d="M77.0844 194.452C77.202 194.776 77.1771 195.108 77.0098 195.447C76.8426 195.787 76.5945 196.008 76.2656 196.113C75.9278 196.213 75.5892 196.179 75.2499 196.012C74.9106 195.844 74.6821 195.598 74.5646 195.274C74.438 194.945 74.4584 194.611 74.6257 194.272C74.793 193.933 75.0455 193.713 75.3833 193.613C75.7122 193.509 76.0463 193.541 76.3856 193.708C76.725 193.875 76.9579 194.123 77.0844 194.452ZM75.9248 192.515L79.1999 185.872L80.8876 186.704L77.6124 193.347L75.9248 192.515Z" fill="white"/>
<path d="M70.793 193.232L75.8356 184.075L77.4838 184.983L72.4412 194.139L70.793 193.232Z" fill="white"/>
<path d="M73.2334 183.621C73.4436 184.641 73.234 185.63 72.6044 186.586C71.9749 187.542 71.1526 188.121 70.1377 188.323C69.1089 188.528 68.1331 188.327 67.2101 187.719C66.2871 187.111 65.7204 186.297 65.5102 185.277C65.2862 184.259 65.4889 183.272 66.1185 182.316C66.748 181.36 67.5771 180.779 68.6059 180.575C69.6208 180.373 70.5898 180.576 71.5128 181.183C72.4358 181.791 73.0093 182.603 73.2334 183.621ZM69.6845 186.595C70.2166 186.456 70.666 186.109 71.0328 185.551C71.3996 184.994 71.5441 184.44 71.4664 183.888C71.3831 183.345 71.0921 182.909 70.5931 182.58C70.0942 182.252 69.5787 182.157 69.0466 182.295C68.509 182.442 68.0568 182.794 67.6901 183.351C67.3233 183.908 67.1815 184.458 67.2647 185.002C67.3425 185.553 67.6308 185.994 68.1297 186.322C68.6287 186.65 69.1469 186.741 69.6845 186.595Z" fill="white"/>
<path d="M63.3493 184.849L61.8805 183.673L60.4432 185.468L58.9744 184.292L60.4117 182.497L58.8263 181.227L59.8342 179.968L61.4196 181.238L63.7529 178.323C63.9396 178.09 63.9241 177.886 63.7065 177.712L62.7739 176.966L63.7819 175.707L65.3673 176.976C65.6937 177.237 65.8817 177.56 65.9313 177.944C65.9809 178.328 65.8751 178.683 65.6137 179.01L62.8885 182.414L64.3573 183.59L63.3493 184.849Z" fill="white"/>
<path d="M34.6846 155.533L31.2902 147.956L32.9256 147.223L34.2199 150.112L42.1243 146.571L42.9302 148.37L35.0258 151.911L36.32 154.8L34.6846 155.533Z" fill="white"/>
<path d="M33.0676 143.762L34.0824 143.407L34.0133 143.21C33.2324 143.209 32.6808 142.748 32.3585 141.827L32.1216 141.151L33.7284 140.588L34.0935 141.631C34.258 142.101 34.5164 142.432 34.8688 142.626C35.2118 142.822 35.6229 142.836 36.1021 142.668L40.0486 141.287L40.6703 143.063L33.6794 145.51L33.0676 143.762Z" fill="white"/>
<path d="M37.0684 130.796L37.5161 132.593L36.3568 132.882L36.4074 133.084C37.3489 133.24 37.9629 133.892 38.2493 135.042C38.4515 135.853 38.3483 136.592 37.9397 137.258C37.519 137.917 36.8498 138.361 35.9321 138.589L31.643 139.658L31.1881 137.832L35.3033 136.807C35.8057 136.682 36.162 136.444 36.3723 136.094C36.5827 135.744 36.6229 135.308 36.4929 134.787C36.3485 134.207 36.0639 133.806 35.6391 133.584C35.2144 133.361 34.6832 133.329 34.0456 133.488L30.3361 134.412L29.8812 132.587L37.0684 130.796Z" fill="white"/>
<path d="M32.9762 129.15C32.6777 129.675 32.1933 129.984 31.5229 130.078C30.8525 130.172 30.2666 129.973 29.7652 129.48C29.2639 128.987 28.9531 128.312 28.8328 127.455C28.6517 126.163 29.0519 124.895 30.0337 123.652L31.2871 124.848C30.5487 125.676 30.2361 126.494 30.3495 127.302C30.3979 127.647 30.5042 127.904 30.6685 128.072C30.823 128.241 31.0136 128.31 31.2403 128.278C31.4868 128.243 31.649 128.11 31.7271 127.878C31.7953 127.647 31.8229 127.307 31.81 126.856L31.8043 126.6C31.7778 125.408 31.9032 124.546 32.1805 124.014C32.4466 123.474 32.9148 123.157 33.5852 123.063C34.305 122.963 34.945 123.189 35.5053 123.744C36.0544 124.29 36.3967 125.047 36.5322 126.013C36.7631 127.659 36.252 129.033 34.9989 130.133L33.8599 128.785C34.2928 128.503 34.6064 128.123 34.8005 127.643C34.9946 127.163 35.0571 126.677 34.988 126.184C34.9327 125.79 34.8061 125.461 34.6082 125.197C34.4005 124.935 34.1587 124.823 33.8826 124.861C33.7545 124.879 33.6515 124.934 33.5739 125.025C33.4863 125.118 33.4297 125.252 33.4039 125.426C33.3781 125.601 33.3657 125.763 33.3667 125.914C33.3579 126.066 33.356 126.267 33.361 126.518L33.3666 126.773C33.3935 127.825 33.2633 128.618 32.9762 129.15Z" fill="white"/>
<path d="M28.4067 122.528L28.3156 120.649L26.0186 120.76L25.9275 118.88L28.2245 118.769L28.1261 116.741L29.737 116.662L29.8354 118.691L33.5643 118.51C33.8626 118.496 34.005 118.349 33.9915 118.071L33.9337 116.878L35.5446 116.8L35.6429 118.828C35.6632 119.246 35.5458 119.6 35.2908 119.892C35.0358 120.183 34.6995 120.339 34.2819 120.359L29.9265 120.57L30.0176 122.45L28.4067 122.528Z" fill="white"/>
<path d="M38.4411 115.336L28.0591 114.846L28.1463 112.997L29.1905 113.046L29.2003 112.837C28.3894 112.28 28.0088 111.475 28.0585 110.421C28.1026 109.486 28.5132 108.703 29.2905 108.072C30.0677 107.441 31.0132 107.152 32.127 107.204C33.2408 107.257 34.1549 107.634 34.8693 108.335C35.5837 109.037 35.9189 109.855 35.8748 110.79C35.8251 111.844 35.3704 112.61 34.5107 113.087L34.5022 113.266L38.5297 113.456L38.4411 115.336ZM34.1802 111.218C34.2079 110.631 34.0317 110.14 33.6518 109.743C33.2723 109.336 32.7345 109.117 32.0384 109.084C31.3423 109.051 30.7862 109.219 30.3701 109.588C29.9545 109.947 29.7329 110.42 29.7052 111.007C29.6771 111.604 29.858 112.101 30.2479 112.498C30.6278 112.894 31.1609 113.109 31.8471 113.141C32.5332 113.174 33.0891 113.01 33.5146 112.652C33.9302 112.293 34.1521 111.815 34.1802 111.218Z" fill="white"/>
<path d="M27.4902 104.986C27.2215 105.202 26.8995 105.286 26.5243 105.238C26.1491 105.19 25.8588 105.027 25.6536 104.75C25.4497 104.462 25.3718 104.131 25.4201 103.756C25.4683 103.381 25.6268 103.085 25.8956 102.869C26.1656 102.642 26.4882 102.553 26.8634 102.602C27.2386 102.65 27.5282 102.818 27.7322 103.105C27.9374 103.382 28.0159 103.708 27.9676 104.084C27.9193 104.459 27.7602 104.76 27.4902 104.986ZM28.9467 103.261L36.293 104.206L36.053 106.072L28.7066 105.127L28.9467 103.261Z" fill="white"/>
<path d="M26.5896 98.7091L36.8847 100.521L36.5585 102.374L26.2635 100.562L26.5896 98.7091Z" fill="white"/>
<path d="M36.499 97.7286C35.6022 98.2589 34.5994 98.3816 33.4905 98.0968C32.3816 97.812 31.5668 97.2225 31.0461 96.3282C30.5183 95.4217 30.3919 94.4333 30.6667 93.363C30.9416 92.2927 31.5275 91.4924 32.4243 90.9621C33.3139 90.4196 34.3132 90.2908 35.4221 90.5756C36.531 90.8604 37.3493 91.456 37.8771 92.3625C38.3978 93.2568 38.5207 94.2391 38.2458 95.3094C37.9709 96.3798 37.3887 97.1861 36.499 97.7286ZM32.5339 95.338C32.8376 95.7963 33.3125 96.1085 33.9585 96.2744C34.6046 96.4403 35.1759 96.3969 35.6725 96.1441C36.1595 95.8889 36.4773 95.472 36.6258 94.8934C36.7744 94.3149 36.6969 93.7964 36.3931 93.3381C36.0798 92.8773 35.6001 92.564 34.954 92.3981C34.308 92.2321 33.7415 92.2768 33.2545 92.532C32.7579 92.7848 32.4353 93.2005 32.2867 93.779C32.1381 94.3576 32.2205 94.8773 32.5339 95.338Z" fill="white"/>
<path d="M32.1248 88.7575L32.7588 86.9859L30.5936 86.2111L31.2275 84.4395L33.3928 85.2143L34.077 83.3022L35.5955 83.8456L34.9113 85.7577L38.4263 87.0156C38.7075 87.1162 38.895 87.0353 38.989 86.7728L39.3915 85.648L40.91 86.1914L40.2257 88.1036C40.0848 88.4973 39.8409 88.7801 39.4939 88.952C39.1469 89.1239 38.7765 89.1394 38.3828 88.9985L34.2773 87.5293L33.6433 89.3009L32.1248 88.7575Z" fill="white"/>
<path d="M50.523 52.1505L56.6049 46.4982L57.8248 47.8109L55.5058 49.9661L61.4021 56.3105L59.9582 57.6524L54.0619 51.308L51.7429 53.4632L50.523 52.1505Z" fill="white"/>
<path d="M61.234 46.7497L61.8944 47.5982L62.0593 47.4698C61.8111 46.7294 62.072 46.0596 62.8419 45.4604L63.4075 45.0201L64.4532 46.3635L63.5811 47.0423C63.1883 47.348 62.9566 47.6987 62.886 48.0942C62.8093 48.4819 62.9269 48.8761 63.2387 49.2768L65.8069 52.5765L64.322 53.7321L59.7727 47.887L61.234 46.7497Z" fill="white"/>
<path d="M74.7106 46.4189L73.1522 47.419L72.5069 46.4135L72.331 46.5265C72.4858 47.4681 72.0646 48.2588 71.0675 48.8987C70.3637 49.3503 69.6309 49.4894 68.8689 49.3159C68.11 49.1287 67.4752 48.6371 66.9644 47.8411L64.5771 44.121L66.1607 43.1047L68.4512 46.6741C68.7308 47.1098 69.07 47.3711 69.4689 47.4582C69.8678 47.5452 70.2935 47.4436 70.7459 47.1533C71.2487 46.8307 71.5373 46.4325 71.6119 45.9588C71.6864 45.4851 71.5463 44.9718 71.1914 44.4188L69.1267 41.2014L70.7103 40.1852L74.7106 46.4189Z" fill="white"/>
<path d="M75.2247 41.835C74.6324 41.72 74.1844 41.36 73.8809 40.7549C73.5773 40.1498 73.5787 39.531 73.885 38.8983C74.1914 38.2657 74.7317 37.7552 75.5058 37.3668C76.6715 36.782 78.0005 36.7557 79.4927 37.288L78.7602 38.8584C77.74 38.4234 76.8651 38.389 76.1355 38.7551C75.824 38.9113 75.615 39.0941 75.5084 39.3035C75.3974 39.504 75.3932 39.7066 75.4959 39.9113C75.6075 40.1337 75.7857 40.2448 76.0306 40.2445C76.271 40.2352 76.6026 40.1524 77.0253 39.996L77.2656 39.9089C78.3871 39.5022 79.2439 39.3453 79.8362 39.438C80.4329 39.5173 80.883 39.8595 81.1866 40.4646C81.5125 41.1142 81.5023 41.7932 81.1559 42.5015C80.814 43.1966 80.2071 43.7628 79.335 44.2003C77.849 44.9458 76.3841 44.901 74.9405 44.066L75.8534 42.5554C76.259 42.8754 76.72 43.0507 77.2365 43.0812C77.753 43.1116 78.2337 43.0153 78.6787 42.792C79.0346 42.6135 79.3059 42.3883 79.4925 42.1164C79.6747 41.8357 79.7032 41.5708 79.5783 41.3216C79.5202 41.2059 79.4355 41.1259 79.3242 41.0815C79.2083 41.0282 79.0636 41.0173 78.89 41.0487C78.7164 41.0801 78.5584 41.1204 78.416 41.1696C78.2691 41.2098 78.0778 41.2724 77.8419 41.3573L77.6016 41.4445C76.6137 41.8064 75.8214 41.9366 75.2247 41.835Z" fill="white"/>
<path d="M79.9152 35.4287L81.6646 34.7357L80.8175 32.5976L82.5669 31.9046L83.4139 34.0427L85.302 33.2947L85.896 34.7941L84.0079 35.5421L85.3829 39.013C85.4929 39.2906 85.6775 39.3781 85.9366 39.2755L87.0473 38.8355L87.6413 40.3349L85.7532 41.0829C85.3644 41.2369 84.991 41.2403 84.6328 41.093C84.2747 40.9458 84.0186 40.6778 83.8646 40.2891L82.2586 36.2351L80.5092 36.9281L79.9152 35.4287Z" fill="white"/>
<path d="M89.9794 42.5855L87.094 32.6005L88.873 32.0864L89.1632 33.0906L89.364 33.0326C89.6292 32.0855 90.2687 31.4655 91.2825 31.1725C92.1815 30.9127 93.0551 31.0489 93.9032 31.581C94.7512 32.1132 95.3301 32.9148 95.6396 33.986C95.9491 35.0572 95.8872 36.044 95.4536 36.9465C95.0201 37.849 94.3538 38.4302 93.4548 38.6899C92.441 38.9829 91.5694 38.7995 90.8399 38.1399L90.6677 38.1896L91.787 42.0631L89.9794 42.5855ZM92.5027 37.2241C93.067 37.0611 93.4756 36.7357 93.7285 36.2481C93.9909 35.7578 94.0254 35.1779 93.832 34.5084C93.6385 33.8389 93.3 33.3667 92.8164 33.092C92.3425 32.8144 91.8233 32.7572 91.259 32.9202C90.6852 33.0861 90.2732 33.4176 90.0231 33.9147C89.7702 34.4023 89.7391 34.9761 89.9298 35.636C90.1205 36.2959 90.4542 36.7694 90.931 37.0565C91.405 37.3341 91.9289 37.3899 92.5027 37.2241Z" fill="white"/>
<path d="M95.7966 28.9682C95.5046 28.7844 95.3205 28.5072 95.2442 28.1367C95.1678 27.7662 95.2275 27.4388 95.423 27.1546C95.6283 26.8683 95.9163 26.6871 96.2868 26.6107C96.6573 26.5344 96.9886 26.5882 97.2806 26.772C97.5823 26.9538 97.7713 27.2299 97.8476 27.6005C97.9239 27.971 97.8594 28.2994 97.6541 28.5856C97.4586 28.8698 97.1755 29.0501 96.805 29.1264C96.4344 29.2028 96.0983 29.15 95.7966 28.9682ZM97.9012 29.785L99.3954 37.0396L97.5525 37.4192L96.0583 30.1646L97.9012 29.785Z" fill="white"/>
<path d="M101.597 26.0428L103.205 36.3717L101.346 36.6611L99.7382 26.3321L101.597 26.0428Z" fill="white"/>
<path d="M105.976 35.0666C105.187 34.3872 104.749 33.4767 104.663 32.3351C104.577 31.1934 104.874 30.2326 105.554 29.4527C106.244 28.662 107.139 28.2253 108.241 28.1425C109.343 28.0596 110.289 28.3579 111.079 29.0373C111.878 29.706 112.321 30.6112 112.406 31.7529C112.492 32.8945 112.19 33.8607 111.501 34.6513C110.821 35.4312 109.93 35.8626 108.828 35.9455C107.726 36.0283 106.776 35.7354 105.976 35.0666ZM106.969 30.5443C106.633 30.979 106.489 31.5288 106.539 32.194C106.589 32.8591 106.814 33.3864 107.212 33.7757C107.61 34.1551 108.107 34.3224 108.703 34.2776C109.298 34.2329 109.764 33.9931 110.101 33.5585C110.437 33.1139 110.58 32.5591 110.53 31.8939C110.48 31.2288 110.256 30.7065 109.858 30.3271C109.459 29.9378 108.962 29.7655 108.367 29.8103C107.771 29.8551 107.305 30.0997 106.969 30.5443Z" fill="white"/>
<path d="M112.869 28.0502L114.75 28.0812L114.788 25.7818L116.669 25.8127L116.632 28.1122L118.662 28.1456L118.636 29.7581L116.605 29.7247L116.544 33.4575C116.539 33.7562 116.676 33.9078 116.954 33.9123L118.149 33.932L118.122 35.5446L116.092 35.5112C115.674 35.5043 115.327 35.3642 115.053 35.0908C114.779 34.8175 114.645 34.4718 114.652 34.0537L114.724 29.6938L112.842 29.6628L112.869 28.0502Z" fill="white"/>
<path d="M153.972 33.8179L161.275 37.7682L160.423 39.3444L157.638 37.8382L153.517 45.4563L151.784 44.5185L155.904 36.9003L153.12 35.3941L153.972 33.8179Z" fill="white"/>
<path d="M162.236 42.0591L161.644 42.9571L161.819 43.0721C162.44 42.5991 163.158 42.6308 163.973 43.1673L164.572 43.5614L163.636 44.9834L162.713 44.3757C162.297 44.102 161.891 43.9953 161.493 44.0556C161.102 44.1076 160.766 44.3456 160.487 44.7697L158.188 48.2621L156.616 47.2275L160.689 41.0409L162.236 42.0591Z" fill="white"/>
<path d="M167.016 54.8281L165.571 53.6708L166.317 52.7382L166.154 52.6075C165.311 53.055 164.427 52.9085 163.502 52.1681C162.85 51.6454 162.484 50.9954 162.405 50.218C162.34 49.439 162.603 48.6804 163.194 47.9421L165.956 44.4915L167.425 45.6675L164.775 48.9782C164.451 49.3823 164.312 49.7872 164.357 50.1931C164.402 50.5989 164.634 50.9698 165.054 51.3058C165.52 51.6791 165.989 51.8254 166.462 51.7448C166.935 51.6641 167.376 51.3673 167.787 50.8544L170.176 47.8701L171.645 49.046L167.016 54.8281Z" fill="white"/>
<path d="M171.197 53.5446C171.115 52.9469 171.312 52.4069 171.787 51.9247C172.262 51.4426 172.849 51.2447 173.546 51.3311C174.244 51.4176 174.901 51.7648 175.518 52.3728C176.447 53.2882 176.899 54.538 176.876 56.1221L175.153 55.934C175.237 54.8282 174.988 53.9887 174.406 53.4157C174.158 53.1711 173.918 53.0321 173.685 52.9986C173.459 52.958 173.266 53.0192 173.106 53.1823C172.931 53.3596 172.883 53.5641 172.962 53.7958C173.048 54.0204 173.233 54.3077 173.518 54.6576L173.677 54.8571C174.423 55.788 174.848 56.5487 174.951 57.1393C175.068 57.7298 174.888 58.2661 174.413 58.7483C173.903 59.2659 173.257 59.4748 172.475 59.3748C171.707 59.2748 170.975 58.8824 170.28 58.1976C169.096 57.0305 168.667 55.6292 168.993 53.9936L170.717 54.3718C170.545 54.8588 170.527 55.3517 170.665 55.8505C170.802 56.3494 171.048 56.7735 171.402 57.1229C171.686 57.4024 171.987 57.5868 172.304 57.676C172.628 57.7581 172.889 57.6999 173.084 57.5014C173.175 57.4092 173.224 57.3032 173.23 57.1835C173.243 57.0567 173.207 56.9162 173.121 56.7619C173.035 56.6077 172.946 56.471 172.854 56.352C172.769 56.2259 172.648 56.0649 172.492 55.8689L172.332 55.6694C171.671 54.8506 171.293 54.1423 171.197 53.5446Z" fill="white"/>
<path d="M178.786 55.9206L180.005 57.3536L181.757 55.8632L182.976 57.2962L181.225 58.7866L182.541 60.3333L181.312 61.3785L179.996 59.8318L177.153 62.2512C176.926 62.4448 176.902 62.6477 177.083 62.86L177.857 63.7698L176.629 64.815L175.313 63.2683C175.042 62.9499 174.918 62.5974 174.942 62.2109C174.966 61.8244 175.138 61.4957 175.456 61.2247L178.777 58.3988L177.558 56.9658L178.786 55.9206Z" fill="white"/>
<path d="M175.526 68.1012L184.063 62.1739L185.119 63.6949L184.261 64.2911L184.38 64.4628C185.362 64.4111 186.154 64.8187 186.756 65.6856C187.29 66.4543 187.44 67.3255 187.207 68.2993C186.974 69.273 186.4 70.0778 185.484 70.7137C184.568 71.3496 183.613 71.6065 182.619 71.4844C181.625 71.3623 180.862 70.9169 180.328 70.1482C179.726 69.2813 179.621 68.3968 180.013 67.4946L179.911 67.3474L176.599 69.6468L175.526 68.1012ZM181.412 68.7773C181.747 69.2597 182.186 69.5428 182.729 69.6265C183.278 69.7183 183.838 69.5655 184.411 69.1681C184.983 68.7707 185.322 68.2989 185.428 67.7529C185.539 67.215 185.427 66.7048 185.092 66.2223C184.752 65.7317 184.306 65.4474 183.755 65.3694C183.212 65.2857 182.658 65.4398 182.094 65.8315C181.53 66.2233 181.188 66.6909 181.068 67.2345C180.957 67.7723 181.072 68.2866 181.412 68.7773Z" fill="white"/>
<path d="M190.507 69.6364C190.589 69.3011 190.793 69.0384 191.12 68.8481C191.447 68.6579 191.776 68.6103 192.108 68.7053C192.445 68.8088 192.708 69.0241 192.898 69.3511C193.089 69.6781 193.143 70.0093 193.062 70.3445C192.985 70.6884 192.784 70.9555 192.457 71.1457C192.13 71.336 191.798 71.3793 191.461 71.2757C191.129 71.1807 190.868 70.9697 190.678 70.6427C190.488 70.3157 190.431 69.9803 190.507 69.6364ZM190.403 71.8915L184 75.6161L183.054 73.9897L189.456 70.2651L190.403 71.8915Z" fill="white"/>
<path d="M195.06 74.0993L185.786 78.9225L184.918 77.2531L194.192 72.43L195.06 74.0993Z" fill="white"/>
<path d="M187.575 80.4315C187.961 79.4636 188.679 78.7532 189.731 78.3005C190.782 77.8478 191.787 77.8161 192.746 78.2054C193.718 78.5999 194.423 79.3047 194.859 80.3197C195.296 81.3347 195.322 82.3261 194.937 83.2941C194.565 84.2673 193.853 84.9802 192.801 85.4329C191.75 85.8857 190.738 85.9148 189.766 85.5203C188.807 85.131 188.109 84.4288 187.672 83.4138C187.235 82.3988 187.203 81.4047 187.575 80.4315ZM192.174 79.8985C191.654 79.7216 191.087 79.765 190.475 80.0288C189.862 80.2925 189.436 80.6762 189.198 81.1799C188.969 81.6796 188.972 82.2038 189.208 82.7525C189.445 83.3011 189.823 83.6639 190.344 83.8408C190.873 84.0138 191.444 83.9685 192.057 83.7047C192.67 83.441 193.091 83.0592 193.32 82.5595C193.558 82.0558 193.559 81.5297 193.323 80.981C193.087 80.4324 192.704 80.0715 192.174 79.8985Z" fill="white"/>
<path d="M196.526 84.8387L197.108 86.628L199.295 85.9164L199.877 87.7056L197.69 88.4172L198.319 90.3485L196.785 90.8475L196.156 88.9163L192.606 90.0715C192.322 90.1639 192.223 90.3427 192.31 90.6077L192.679 91.7438L191.146 92.2428L190.517 90.3116C190.388 89.914 190.408 89.541 190.577 89.1928C190.747 88.8445 191.03 88.6057 191.428 88.4763L195.574 87.127L194.992 85.3378L196.526 84.8387Z" fill="white"/>
</g>
<g filter="url(#filter0_f_1002_1599)">
<path d="M145.252 33.2431L138.895 31.4933L138.601 24.9099L134.969 30.4128L128.615 28.6514L132.727 33.8069L129.095 39.3098L135.266 36.9846L139.378 42.1401L139.084 35.5567L145.252 33.2431Z" fill="#00B67A"/>
<path d="M139.148 37.0442L139.084 35.5567L135.277 36.9877L139.148 37.0442Z" fill="#595959"/>
<path d="M41.8769 162.894L45.9297 168.06L42.2653 173.504L48.4323 171.25L52.4756 176.423L52.2374 169.861L58.4043 167.607L52.0872 165.814L51.849 159.251L48.1846 164.695L41.8769 162.894Z" fill="#00B67A"/>
<path d="M49.0145 163.466L48.1846 164.695L52.0799 165.804L49.0145 163.466Z" fill="#595959"/>
<path d="M201.797 120.455L201.764 113.882L208.003 111.828L201.744 109.824L201.723 103.251L197.882 108.586L191.623 106.582L195.517 111.878L191.676 117.214L197.916 115.159L201.797 120.455Z" fill="#00B67A"/>
<path d="M196.505 115.621L197.916 115.159L195.517 111.89L196.505 115.621Z" fill="#595959"/>
<path d="M137.104 199.404L143.259 197.048L147.394 202.176L147.06 195.594L153.22 193.25L146.856 191.533L146.522 184.952L142.93 190.478L136.567 188.761L140.701 193.889L137.104 199.404Z" fill="#00B67A"/>
<path d="M139.769 192.729L140.701 193.889L142.919 190.482L139.769 192.729Z" fill="#595959"/>
<path d="M47.0016 59.5739L43.3038 65.0847L36.9258 63.2651L41.0205 68.4875L37.3127 73.9915L43.5455 71.7103L47.6402 76.9327L47.3885 70.3003L53.6213 68.0191L47.2432 66.1995L47.0016 59.5739Z" fill="#00B67A"/>
<path d="M48.6835 66.613L47.2432 66.1995L47.395 70.2904L48.6835 66.613Z" fill="#595959"/>
</g>
<path d="M145.252 33.2431L138.895 31.4933L138.601 24.9099L134.969 30.4128L128.615 28.6514L132.727 33.8069L129.095 39.3098L135.266 36.9846L139.378 42.1401L139.084 35.5567L145.252 33.2431Z" fill="#00B67A"/>
<path d="M139.148 37.0442L139.084 35.5567L135.277 36.9877L139.148 37.0442Z" fill="#595959"/>
<path d="M41.8769 162.894L45.9297 168.06L42.2653 173.504L48.4323 171.25L52.4756 176.423L52.2374 169.861L58.4043 167.607L52.0872 165.814L51.849 159.251L48.1846 164.695L41.8769 162.894Z" fill="#00B67A"/>
<path d="M49.0145 163.466L48.1846 164.695L52.0799 165.804L49.0145 163.466Z" fill="#595959"/>
<path d="M201.797 120.455L201.764 113.882L208.003 111.828L201.744 109.824L201.723 103.251L197.882 108.586L191.623 106.582L195.517 111.878L191.676 117.214L197.916 115.159L201.797 120.455Z" fill="#00B67A"/>
<path d="M196.505 115.621L197.916 115.159L195.517 111.89L196.505 115.621Z" fill="#595959"/>
<path d="M137.104 199.404L143.259 197.048L147.394 202.176L147.06 195.594L153.22 193.25L146.856 191.533L146.522 184.952L142.93 190.478L136.567 188.761L140.701 193.889L137.104 199.404Z" fill="#00B67A"/>
<path d="M139.769 192.729L140.701 193.889L142.919 190.482L139.769 192.729Z" fill="#595959"/>
<path d="M47.0016 59.5739L43.3038 65.0847L36.9258 63.2651L41.0205 68.4875L37.3127 73.9915L43.5455 71.7103L47.6402 76.9327L47.3885 70.3003L53.6213 68.0191L47.2432 66.1995L47.0016 59.5739Z" fill="#00B67A"/>
<path d="M48.6835 66.613L47.2432 66.1995L47.395 70.2904L48.6835 66.613Z" fill="#595959"/>
<defs>
<filter id="filter0_f_1002_1599" x="21.9258" y="9.90991" width="201.078" height="207.266" filterUnits="userSpaceOnUse" color-interpolation-filters="sRGB">
<feFlood flood-opacity="0" result="BackgroundImageFix"/>
<feBlend mode="normal" in="SourceGraphic" in2="BackgroundImageFix" result="shape"/>
<feGaussianBlur stdDeviation="7.5" result="effect1_foregroundBlur_1002_1599"/>
</filter>
<radialGradient id="paint0_radial_1002_1599" cx="0" cy="0" r="1" gradientUnits="userSpaceOnUse" gradientTransform="translate(37.6672 32.9214) rotate(45) scale(259.665)">
<stop stop-color="#A3E1F5"/>
<stop offset="0.494792" stop-color="#DEAEC6"/>
<stop offset="1" stop-color="#798FDF"/>
</radialGradient>
</defs>
</svg>
