<svg width="25" height="25" viewBox="0 0 25 25" fill="none" xmlns="http://www.w3.org/2000/svg">
<path d="M11.9491 15.5399C8.49909 15.5399 5.58813 16.1037 5.58813 18.2794C5.58813 20.4561 8.51789 21 11.9491 21C15.3991 21 18.31 20.4362 18.31 18.2605C18.31 16.0839 15.3803 15.5399 11.9491 15.5399Z" fill="black"/>
<path opacity="0.4" d="M11.949 13.467C14.2851 13.467 16.1583 11.5831 16.1583 9.23351C16.1583 6.88306 14.2851 5 11.949 5C9.61293 5 7.73975 6.88306 7.73975 9.23351C7.73975 11.5831 9.61293 13.467 11.949 13.467Z" fill="black"/>
<path opacity="0.4" d="M21.0881 10.2193C21.6925 7.84179 19.9205 5.70657 17.664 5.70657C17.4187 5.70657 17.1841 5.73359 16.9549 5.77952C16.9244 5.78672 16.8904 5.80203 16.8725 5.82905C16.8519 5.86327 16.8671 5.9092 16.8895 5.93892C17.5673 6.89531 17.9568 8.05973 17.9568 9.3097C17.9568 10.5074 17.5996 11.6241 16.9728 12.5508C16.9083 12.6463 16.9656 12.775 17.0793 12.7949C17.2369 12.8228 17.3981 12.8372 17.5629 12.8417C19.2059 12.8849 20.6807 11.8213 21.0881 10.2193Z" fill="black"/>
<path d="M22.8092 15.8169C22.5083 15.1721 21.7821 14.73 20.6781 14.5129C20.157 14.385 18.7467 14.2049 17.435 14.2292C17.4153 14.2319 17.4045 14.2455 17.4027 14.2545C17.4 14.2671 17.4054 14.2887 17.4314 14.3022C18.0376 14.6039 20.3808 15.916 20.0862 18.6834C20.0737 18.8032 20.1695 18.9067 20.2886 18.8887C20.8652 18.8059 22.3489 18.4853 22.8092 17.4866C23.0635 16.9588 23.0635 16.3456 22.8092 15.8169Z" fill="black"/>
<path opacity="0.4" d="M7.04483 5.77979C6.8165 5.73296 6.58101 5.70685 6.33567 5.70685C4.07926 5.70685 2.30726 7.84207 2.91255 10.2195C3.31906 11.8216 4.79379 12.8852 6.43685 12.842C6.60161 12.8375 6.76368 12.8221 6.92037 12.7951C7.03409 12.7753 7.09139 12.6465 7.02692 12.5511C6.40014 11.6235 6.04288 10.5077 6.04288 9.30997C6.04288 8.0591 6.43327 6.89468 7.11109 5.93919C7.13258 5.90947 7.1487 5.86354 7.12721 5.82932C7.1093 5.80141 7.07617 5.787 7.04483 5.77979Z" fill="black"/>
<path d="M3.32156 14.5127C2.21752 14.7297 1.49225 15.1719 1.19139 15.8167C0.936203 16.3453 0.936203 16.9586 1.19139 17.4872C1.65163 18.485 3.13531 18.8065 3.71195 18.8885C3.83104 18.9065 3.92595 18.8038 3.91342 18.6831C3.61883 15.9166 5.9621 14.6045 6.56918 14.3028C6.59425 14.2884 6.59962 14.2677 6.59694 14.2542C6.59515 14.2452 6.5853 14.2317 6.5656 14.2299C5.25294 14.2047 3.84358 14.3848 3.32156 14.5127Z" fill="black"/>
<circle cx="19" cy="6" r="6" fill="#101314"/>
<circle cx="19" cy="6" r="3" fill="#FFB60E"/>
</svg>
